{
    "asset" : {
        "generator" : "Khronos glTF Blender I/O v1.6.16",
        "version" : "2.0"
    },
    "scene" : 0,
    "scenes" : [
        {
            "name" : "Scene",
            "nodes" : [
                0
            ]
        }
    ],
    "nodes" : [
        {
            "mesh" : 0,
            "name" : "Object"
        }
    ],
    "materials" : [
        {
            "doubleSided" : true,
            "name" : "m_0",
            "pbrMetallicRoughness" : {
                "baseColorFactor" : [
                    0.800000011920929,
                    0.800000011920929,
                    0.800000011920929,
                    1
                ],
                "metallicFactor" : 0,
                "roughnessFactor" : 0.5
            }
        }
    ],
    "meshes" : [
        {
            "name" : "g_1",
            "primitives" : [
                {
                    "attributes" : {
                        "POSITION" : 0,
                        "NORMAL" : 1,
                        "TEXCOORD_0" : 2
                    },
                    "indices" : 3,
                    "material" : 0
                }
            ]
        }
    ],
    "accessors" : [
        {
            "bufferView" : 0,
            "componentType" : 5126,
            "count" : 418390,
            "max" : [
                500,
                33.3612174987793,
                499.5
            ],
            "min" : [
                -500,
                -2.5493521690368652,
                -500.5
            ],
            "type" : "VEC3"
        },
        {
            "bufferView" : 1,
            "componentType" : 5126,
            "count" : 418390,
            "type" : "VEC3"
        },
        {
            "bufferView" : 2,
            "componentType" : 5126,
            "count" : 418390,
            "type" : "VEC2"
        },
        {
            "bufferView" : 3,
            "componentType" : 5125,
            "count" : 432786,
            "type" : "SCALAR"
        }
    ],
    "bufferViews" : [
        {
            "buffer" : 0,
            "byteLength" : 5020680,
            "byteOffset" : 0
        },
        {
            "buffer" : 0,
            "byteLength" : 5020680,
            "byteOffset" : 5020680
        },
        {
            "buffer" : 0,
            "byteLength" : 3347120,
            "byteOffset" : 10041360
        },
        {
            "buffer" : 0,
            "byteLength" : 1731144,
            "byteOffset" : 13388480
        }
    ],
    "buffers" : [
        {
            "byteLength" : 15119624,
            "uri" : "BOS3D_L5_Terrain.bin"
        }
    ]
}
