{
    "asset" : {
        "generator" : "Khronos glTF Blender I/O v1.6.16",
        "version" : "2.0"
    },
    "scene" : 0,
    "scenes" : [
        {
            "name" : "Scene",
            "nodes" : [
                0
            ]
        }
    ],
    "nodes" : [
        {
            "mesh" : 0,
            "name" : "BOS3D_L5_Buildings_20180825"
        }
    ],
    "materials" : [
        {
            "doubleSided" : true,
            "name" : "Default OBJ",
            "pbrMetallicRoughness" : {
                "baseColorFactor" : [
                    0.800000011920929,
                    0.800000011920929,
                    0.800000011920929,
                    1
                ],
                "metallicFactor" : 0,
                "roughnessFactor" : 0.5
            }
        }
    ],
    "meshes" : [
        {
            "name" : "BOS3D_L5_Buildings_20180825",
            "primitives" : [
                {
                    "attributes" : {
                        "POSITION" : 0
                    },
                    "indices" : 1,
                    "material" : 0
                }
            ]
        }
    ],
    "accessors" : [
        {
            "bufferView" : 0,
            "componentType" : 5126,
            "count" : 148168,
            "max" : [
                554.876220703125,
                206.0452117919922,
                528.2542724609375
            ],
            "min" : [
                -512.16162109375,
                1.524003028869629,
                -564.177490234375
            ],
            "type" : "VEC3"
        },
        {
            "bufferView" : 1,
            "componentType" : 5125,
            "count" : 303750,
            "type" : "SCALAR"
        }
    ],
    "bufferViews" : [
        {
            "buffer" : 0,
            "byteLength" : 1778016,
            "byteOffset" : 0
        },
        {
            "buffer" : 0,
            "byteLength" : 1215000,
            "byteOffset" : 1778016
        }
    ],
    "buffers" : [
        {
            "byteLength" : 2993016,
            "uri" : "BOS3D_L5_OneMesh.bin"
        }
    ]
}
